<svg width="94" height="25" viewBox="0 0 94 25" fill="none" xmlns="http://www.w3.org/2000/svg">
<g clip-path="url(#clip0_34_1488)">
<path d="M81.4316 6.21525L82.3702 1.9121L75.3243 1.99743L74.3735 5.43507C73.2641 -0.404029 58.7334 -0.842885 51.4193 6.30057C44.1174 13.4318 47.1527 19.4538 47.1527 19.4538C31.854 23.4888 33.2803 13.9438 33.3656 13.3465C35.7793 2.50942 48.323 6.47124 48.323 6.47124C48.323 6.47124 50.1393 2.94827 50.3953 2.25343C32.683 -1.78153 27.4412 9.3847 27.0023 9.90888C27.9532 6.64191 26.2344 4.83775 25.8077 4.49643C21.2486 -1.18421 5.76702 2.86294 5.76702 2.86294L4.82837 6.98323C4.82837 6.98323 20.2124 2.50942 20.4684 8.10472C20.5659 8.61671 20.2977 10.4209 20.2977 10.4209L12.2156 10.5915C12.2156 10.5915 2.32938 11.0304 0.866558 16.1015C0.866558 16.1015 0.549609 16.967 0.537418 18.247C0.525226 19.5269 0.878739 20.8313 0.878739 20.8313C3.37774 25.0491 7.75402 24.2689 7.75402 24.2689L23.5647 23.8301L26.2344 13.6025L26.3197 13.7732C26.149 28.4746 46.7017 23.5985 46.7017 23.5985L47.4697 20.3071C55.8078 29.9374 68.1199 22.0503 68.6319 20.234C69.1317 19.7098 69.0463 18.4176 67.9248 19.2831C65.5234 22.4648 61.8297 22.8061 58.8188 22.9768C49.0178 22.5501 51.9435 13.0052 53.321 12.9199L64.1459 12.1397C71.2893 11.969 73.5201 8.27539 73.5201 8.27539L69.3877 23.7448L77.0431 23.8788C77.0431 23.8788 79.0179 16.1868 79.3714 14.8093C81.4316 4.75242 92.0858 6.81256 92.0858 6.81256C92.0858 6.81256 93.4633 2.25343 93.4633 1.74145C86.2467 0.0226256 81.4316 6.21525 81.4316 6.21525ZM16.3847 19.8805C13.7516 20.7704 7.65649 22.2454 6.69347 18.1373C6.30338 16.0162 8.42448 13.188 19.5297 13.5172C19.5297 13.5172 19.0178 18.9784 16.3847 19.8805ZM69.668 7.48302C67.0349 11.1401 59.4526 11.1401 52.9065 11.7252C52.9065 11.7252 56.1857 2.60695 65.7428 2.08277C65.7428 2.08277 72.935 2.7898 69.668 7.48302Z" fill="#007770"/>
<path d="M81.4316 6.21525L82.3702 1.9121L75.3243 1.99743L74.3735 5.43507C73.2641 -0.404029 58.7334 -0.842885 51.4193 6.30057C44.1174 13.4318 47.1527 19.4538 47.1527 19.4538C31.854 23.4888 33.2803 13.9438 33.3656 13.3465C35.7793 2.50942 48.323 6.47124 48.323 6.47124C48.323 6.47124 50.1393 2.94827 50.3953 2.25343C32.683 -1.78153 27.4412 9.3847 27.0023 9.90888C27.9532 6.64191 26.2344 4.83775 25.8077 4.49643C21.2486 -1.18421 5.76702 2.86294 5.76702 2.86294L4.82837 6.98323C4.82837 6.98323 20.2124 2.50942 20.4684 8.10472C20.5659 8.61671 20.2977 10.4209 20.2977 10.4209L12.2156 10.5915C12.2156 10.5915 2.32938 11.0304 0.866558 16.1015C0.866558 16.1015 0.549609 16.967 0.537418 18.247C0.525226 19.5269 0.878739 20.8313 0.878739 20.8313C3.37774 25.0491 7.75402 24.2689 7.75402 24.2689L23.5647 23.8301L26.2344 13.6025L26.3197 13.7732C26.149 28.4746 46.7017 23.5985 46.7017 23.5985L47.4697 20.3071C55.8078 29.9374 68.1199 22.0503 68.6319 20.234C69.1317 19.7098 69.0463 18.4176 67.9248 19.2831C65.5234 22.4648 61.8297 22.8061 58.8188 22.9768C49.0178 22.5501 51.9435 13.0052 53.321 12.9199L64.1459 12.1397C71.2893 11.969 73.5201 8.27539 73.5201 8.27539L69.3877 23.7448L77.0431 23.8788C77.0431 23.8788 79.0179 16.1868 79.3714 14.8093C81.4316 4.75242 92.0858 6.81256 92.0858 6.81256C92.0858 6.81256 93.4633 2.25343 93.4633 1.74145C86.2467 0.0226256 81.4316 6.21525 81.4316 6.21525ZM16.3847 19.8805C13.7516 20.7704 7.65649 22.2454 6.69347 18.1373C6.30338 16.0162 8.42448 13.188 19.5297 13.5172C19.5297 13.5172 19.0178 18.9784 16.3847 19.8805ZM69.668 7.48302C67.0349 11.1401 59.4526 11.1401 52.9065 11.7252C52.9065 11.7252 56.1857 2.60695 65.7428 2.08277C65.7428 2.08277 72.935 2.7898 69.668 7.48302Z" stroke="#007770" stroke-width="0.424671"/>
</g>
<defs>
<clipPath id="clip0_34_1488">
<rect width="92.9262" height="24" fill="white" transform="translate(0.537109 0.998047)"/>
</clipPath>
</defs>
</svg>
