<svg width="114" height="25" viewBox="0 0 114 25" fill="none" xmlns="http://www.w3.org/2000/svg">
<g clip-path="url(#clip0_34_1484)">
<path d="M35.1989 1.23438C32.3491 1.41188 31.1127 2.7821 30.1849 3.75533C29.1907 4.79414 28.6381 6.98193 28.6381 6.98193V1.27897H17.5277C16.6883 1.27897 15.8925 1.63224 15.2962 2.47255C14.678 3.29101 12.1378 7.49085 12.1378 7.49085H56.0739V1.23438H35.1989ZM90.5111 1.23438C87.6841 1.41188 86.425 2.7821 85.4972 3.75533C84.503 4.79414 83.9504 6.98193 83.9504 6.98193V7.49085H112.844V1.23438H90.5111ZM57.1555 1.25711V7.49085H63.4076V1.25711H57.1555ZM77.6554 1.25711V7.49085H83.8839V1.25711H77.6554ZM11.872 7.86685L1.13672 24.7563H8.47047L18.8087 8.61797L11.872 7.86685ZM57.222 7.95516V17.0491C57.2124 16.8629 57.2001 16.5988 57.2001 16.5988C57.0454 15.6702 55.2781 11.5586 51.4788 11.2045C49.2036 10.9833 28.9476 9.36997 28.9476 9.36997C29.3455 11.4039 30.2514 12.4427 30.8696 13.0172C32.2835 14.3655 34.5142 14.7643 34.5142 14.7643C35.0441 14.808 50.1313 16.068 50.1313 16.068C50.6175 16.0899 51.5234 16.2228 51.5015 17.4164C51.5015 17.5712 51.3686 18.6108 50.2196 18.6108H28.3731V9.32538L22.2985 8.8838C22.2767 8.8838 22.2767 24.7563 22.2767 24.7563H51.4788C56.5592 23.7393 57.0899 19.097 57.0899 19.097C57.1791 18.5899 57.2097 18.143 57.222 17.7469V19.0306C58.2162 24.3357 63.0098 24.7563 63.0098 24.7563C63.0098 24.7563 63.4959 24.7781 63.5843 24.8H77.832C77.832 24.8 83.9285 24.3138 83.9285 18.4333L83.8839 9.74597L77.7437 9.36997V16.5988C77.7437 16.5988 77.721 18.6764 75.7116 18.6764H65.1967C65.1967 18.6764 63.4076 18.5216 63.4076 16.6207V8.39762L57.222 7.95516ZM84.3264 9.74597C84.9227 11.8455 85.7403 12.4873 86.3585 13.0618C87.7725 14.432 89.8702 14.7415 89.8702 14.7415C90.401 14.7861 105.643 16.068 105.643 16.068C106.128 16.0899 107.122 16.1345 107.122 17.3281C107.122 17.6822 106.946 18.0582 106.725 18.2567C106.725 18.2567 106.195 18.5444 105.687 18.5444H83.995L83.9285 24.8H106.283C111.894 24.4686 112.689 19.1407 112.689 19.1407C112.888 17.7487 112.734 16.5988 112.734 16.5988C112.579 15.3388 110.79 11.5359 106.968 11.1608C104.715 10.9396 84.3264 9.74597 84.3264 9.74597Z" fill="#303D48"/>
</g>
<defs>
<clipPath id="clip0_34_1484">
<rect width="112.15" height="24" fill="white" transform="translate(0.924805 0.998047)"/>
</clipPath>
</defs>
</svg>
