<svg width="78" height="25" viewBox="0 0 78 25" fill="none" xmlns="http://www.w3.org/2000/svg">
<g clip-path="url(#clip0_34_1479)">
<path fill-rule="evenodd" clip-rule="evenodd" d="M63.1455 2.33398V24.692H77.7542V17.7099H71.1864V2.33398H63.1455Z" fill="#0875C4"/>
<path fill-rule="evenodd" clip-rule="evenodd" d="M10.4497 9.48398H8.43949V17.8932H10.7106C11.4011 17.8932 14.2093 17.2027 14.2093 13.8881C14.2093 9.62209 11.3244 9.48398 10.4497 9.48398ZM29.0942 12.6605L26.7004 11.218L37.5188 4.28193L32.9766 0.998047L21.4676 8.47119C21.4676 8.47119 18.4753 2.33309 12.7055 2.33309H0.245117V24.6911H14.0252C20.6236 24.6911 21.6825 17.8932 21.6825 17.8932L33.6671 24.998L47.2323 16.0518V24.6911H61.841V17.709H55.2733V2.33309H47.2323V9.40725L35.6467 16.6656L33.4523 15.3305L44.4548 8.40981L40.1735 5.54025L29.0942 12.6605Z" fill="#0875C4"/>
</g>
<defs>
<clipPath id="clip0_34_1479">
<rect width="77.509" height="24" fill="white" transform="translate(0.245117 0.998047)"/>
</clipPath>
</defs>
</svg>
