<svg width="158" height="25" viewBox="0 0 158 25" fill="none" xmlns="http://www.w3.org/2000/svg">
<path d="M130.394 19.3036L130.087 1.70898H135.635V23.885H127.658L122.122 5.68557H122.003L122.31 23.885H116.798V1.70898H125.12L130.271 19.3036H130.394Z" fill="#303D48"/>
<path d="M29.5438 3.78538L26.4744 24.1183H20.4238L24.579 1.70898H34.5467L38.6828 24.1183H32.656L29.67 3.78538H29.5438Z" fill="#303D48"/>
<path d="M52.7747 24.1183L49.0267 3.97111H48.9053L48.7648 24.1183H43.1523L43.6476 1.70898H52.7914L55.5583 18.8393H55.6774L58.4467 1.70898H67.5857L68.0715 24.1183H62.4709L62.3233 3.97111H62.2066L58.461 24.1183H52.7747Z" fill="#303D48"/>
<path d="M10.9869 17.7973C11.2059 18.3402 11.1393 19.0379 11.0369 19.4594C10.8487 20.2047 10.3439 20.9643 8.85331 20.9643C7.44841 20.9643 6.59594 20.1595 6.59594 18.9284V16.7591H0.585824L0.581055 18.495C0.581055 23.4908 4.51478 24.998 8.72949 24.998C12.7823 24.998 16.1207 23.6122 16.6517 19.8785C16.9232 17.9426 16.7208 16.6758 16.6279 16.1972C15.6826 11.5062 7.17695 10.1061 6.54355 7.48202C6.4364 7.03198 6.46735 6.55574 6.51974 6.30095C6.67452 5.5866 7.16504 4.79842 8.56756 4.79842C9.87722 4.79842 10.6511 5.60803 10.6511 6.83196C10.6511 7.2439 10.6511 8.21543 10.6511 8.21543H16.2398V6.64146C16.2398 1.76003 11.8584 0.998047 8.68424 0.998047C4.69813 0.998047 1.44067 2.31484 0.84537 5.96283C0.68345 6.97007 0.659637 7.86778 0.895373 8.9917C1.87404 13.5707 9.83436 14.897 10.9869 17.7973Z" fill="#303D48"/>
<path d="M83.8566 17.7561C84.078 18.2942 84.0066 18.9729 83.9066 19.3943C83.7232 20.1373 83.2232 20.885 81.7421 20.885C80.3562 20.885 79.5109 20.0801 79.5109 18.8776L79.5061 16.7274H73.5579L73.5508 18.4395C73.5508 23.3852 77.4488 24.8782 81.6206 24.8782C85.6306 24.8782 88.938 23.5114 89.4595 19.811C89.731 17.8894 89.5381 16.6393 89.4405 16.1702C88.4999 11.5221 80.08 10.1363 79.4537 7.5384C79.3466 7.09073 79.3775 6.61926 79.4323 6.37876C79.5918 5.65964 80.0729 4.89052 81.4611 4.89052C82.7588 4.89052 83.516 5.68107 83.516 6.89548C83.516 7.30266 83.516 8.26466 83.516 8.26466H89.0618V6.70736C89.0618 1.87831 84.7162 1.12109 81.573 1.12109C77.6321 1.12109 74.4009 2.42122 73.8175 6.04301C73.6556 7.03597 73.6389 7.91701 73.8699 9.03616C74.8342 13.5676 82.716 14.8844 83.8566 17.7561Z" fill="#303D48"/>
<path d="M102.679 20.7673C104.234 20.7673 104.72 19.6911 104.827 19.141C104.873 18.8981 104.884 18.5743 104.88 18.2838V1.70117H110.547V17.7766C110.559 18.1885 110.518 19.0362 110.499 19.2481C110.102 23.4319 106.794 24.7892 102.677 24.7892C98.5553 24.7892 95.2454 23.4319 94.8525 19.2481C94.8334 19.0362 94.793 18.1885 94.8049 17.7766V1.70117H100.467V18.2838C100.467 18.5743 100.477 18.9005 100.52 19.141C100.641 19.6911 101.113 20.7673 102.679 20.7673Z" fill="#303D48"/>
<path d="M149.427 20.531C151.051 20.531 151.617 19.5047 151.722 18.907C151.763 18.6498 151.774 18.3379 151.772 18.0545V14.8018H149.472V11.5301H157.418V17.545C157.413 17.964 157.404 18.2736 157.337 19.0213C156.963 23.0979 153.427 24.5528 149.455 24.5528C145.476 24.5528 141.945 23.0979 141.566 19.0213C141.502 18.2736 141.492 17.964 141.485 17.545L141.49 8.1083C141.49 7.71065 141.54 7.00581 141.583 6.63197C142.081 2.44346 145.476 1.0957 149.455 1.0957C153.429 1.0957 156.908 2.43631 157.32 6.63197C157.394 7.34632 157.37 8.1083 157.37 8.1083V8.856H151.72V7.60111C151.724 7.60349 151.713 7.06772 151.646 6.74865C151.551 6.25336 151.12 5.11515 149.412 5.11515C147.779 5.11515 147.3 6.19145 147.181 6.74865C147.112 7.04391 147.086 7.44395 147.086 7.80589V18.0545C147.081 18.3379 147.098 18.6498 147.143 18.907C147.241 19.5071 147.805 20.531 149.427 20.531Z" fill="#303D48"/>
</svg>
