<svg width="48" height="49" viewBox="0 0 48 49" fill="none" xmlns="http://www.w3.org/2000/svg">
<g clip-path="url(#clip0_34_1512)">
<path d="M24.0673 0.996223L18.9034 15.4743L22.4137 15.4754C24.9424 15.4761 26.0185 17.4699 25.2222 19.7026L20.0875 34.0986H14.9207L20.5699 18.2583H17.9096L12.2609 34.0986H7.04942L18.6407 1.59666C7.96624 4.0318 0 13.583 0 24.9952C0 36.2298 7.71951 45.6601 18.1434 48.2747L29.8542 15.3936H38.3355C40.0897 15.3936 42.2959 16.5764 41.3426 19.2684L36.5807 32.714C35.9724 34.4314 34.5266 34.7795 33.3748 34.7795H28.1609L23.104 48.9777C23.4018 48.9886 23.7001 48.9961 24.0003 48.9961C37.2553 48.9961 48.0008 38.2511 48.0008 24.9956C48.0007 11.7627 37.2913 1.03209 24.0665 0.996094L24.0673 0.996223ZM34.0587 18.2194L29.14 32.0264H31.7593L36.6789 18.2194H34.0587Z" fill="#1086E9"/>
</g>
<defs>
<clipPath id="clip0_34_1512">
<rect width="48.001" height="48" fill="white" transform="translate(0 0.996094)"/>
</clipPath>
</defs>
</svg>
