<svg width="116" height="25" viewBox="0 0 116 25" fill="none" xmlns="http://www.w3.org/2000/svg">
<g clip-path="url(#clip0_34_1463)">
<path d="M48.8494 6.33203C46.8063 6.33203 44.4828 7.27911 43.0632 9.17518L43.0641 9.17134L43.0632 9.1723L43.0641 6.62979H38.1914V24.3745H43.0632V14.2775C43.0632 12.4602 44.4723 10.5286 47.081 10.5286C49.0972 10.5286 51.1834 11.9309 51.1834 14.2775V24.3745H56.0562V13.3746C56.0562 9.29332 53.1362 6.33203 48.8494 6.33203Z" fill="#FF3124"/>
<path d="M90.6877 6.63086L86.2827 18.7181L81.8778 6.63086H76.3115L83.6125 24.3698H88.952L96.2529 6.63086H90.6877Z" fill="#FF3124"/>
<path d="M23.6454 11.9751C24.4753 10.8609 25.797 10.2067 27.3933 10.2067C29.1492 10.2067 30.4814 11.2095 31.1701 12.6897L22.657 16.2215C22.4246 14.409 22.8885 12.9913 23.6454 11.9751ZM33.0066 18.9177C30.9559 20.4354 29.7841 20.7975 27.914 20.7975C26.2311 20.7975 24.9133 20.2749 23.9845 19.3586L36.4415 14.191C36.1696 12.2651 35.4387 10.5449 34.3139 9.23662C32.6772 7.33575 30.2547 6.33008 27.305 6.33008C21.9472 6.33008 17.9072 10.2826 17.9072 15.5031C17.9072 20.8589 21.9568 24.6751 27.8419 24.6751C31.1394 24.6751 34.5108 23.1123 36.088 21.2864L33.0066 18.9177Z" fill="#FF3124"/>
<path d="M17.4425 19.8997H6.36772V1.32227H1.42871V24.3739H17.4425V19.8997Z" fill="#FF3124"/>
<path d="M105.002 10.5055C102.281 10.5055 100.305 12.5677 100.305 15.5011C100.305 18.302 102.398 20.4968 105.068 20.4968C107.79 20.4968 109.765 18.3779 109.765 15.5011C109.765 12.7003 107.673 10.5055 105.002 10.5055ZM105.002 24.6722C99.6734 24.6722 95.498 20.7024 95.498 15.5011C95.498 10.3585 99.7023 6.33008 105.068 6.33008C110.397 6.33008 114.571 10.2999 114.571 15.5011C114.571 20.6428 110.368 24.6722 105.002 24.6722Z" fill="#FF3124"/>
<path d="M67.4878 10.5055C64.7666 10.5055 62.7918 12.5677 62.7918 15.5011C62.7918 18.302 64.8838 20.4968 67.5541 20.4968C70.2752 20.4968 72.2501 18.3779 72.2501 15.5011C72.2501 12.7003 70.158 10.5055 67.4878 10.5055ZM67.4878 24.6722C62.1588 24.6722 57.9844 20.7024 57.9844 15.5011C57.9844 10.3585 62.1876 6.33008 67.5541 6.33008C72.8821 6.33008 77.0575 10.2999 77.0575 15.5011C77.0575 20.6428 72.8533 24.6722 67.4878 24.6722Z" fill="#FF3124"/>
</g>
<defs>
<clipPath id="clip0_34_1463">
<rect width="114.286" height="24" fill="white" transform="translate(0.857422 0.998047)"/>
</clipPath>
</defs>
</svg>
