<svg width="114" height="25" viewBox="0 0 114 25" fill="none" xmlns="http://www.w3.org/2000/svg">
<g clip-path="url(#clip0_34_1531)">
<path d="M47.5335 5.79518V20.1952H45.0335V8.89518H45.0001L40.5335 20.1952H38.8668L34.3001 8.89518H34.2668V20.1952H31.9668V5.79518H35.5668L39.7001 16.4618H39.7668L44.1335 5.79518H47.5335ZM49.6001 6.89518C49.6001 6.49518 49.7335 6.16185 50.0335 5.89518C50.3335 5.62852 50.6668 5.49518 51.0668 5.49518C51.5001 5.49518 51.8668 5.62852 52.1335 5.89518C52.4001 6.16185 52.5668 6.49518 52.5668 6.89518C52.5668 7.29518 52.4335 7.62852 52.1335 7.89518C51.8335 8.16185 51.5001 8.29518 51.0668 8.29518C50.6335 8.29518 50.3001 8.16185 50.0335 7.89518C49.7668 7.59518 49.6001 7.26185 49.6001 6.89518ZM52.3001 9.86185V20.1952H49.8668V9.86185H52.3001ZM59.6668 18.4285C60.0335 18.4285 60.4335 18.3618 60.8668 18.1618C61.3001 17.9952 61.7001 17.7618 62.0668 17.4952V19.7618C61.6668 19.9952 61.2335 20.1618 60.7335 20.2618C60.2335 20.3618 59.7001 20.4285 59.1001 20.4285C57.5668 20.4285 56.3335 19.9618 55.4001 18.9952C54.4335 18.0285 53.9668 16.7952 53.9668 15.3285C53.9668 13.6618 54.4668 12.2952 55.4335 11.2285C56.4001 10.1618 57.7668 9.62852 59.5668 9.62852C60.0335 9.62852 60.5001 9.69518 60.9335 9.79518C61.4001 9.89518 61.7668 10.0618 62.0335 10.1952V12.5285C61.6668 12.2618 61.2668 12.0285 60.9001 11.8952C60.5001 11.7618 60.1001 11.6618 59.7001 11.6618C58.7335 11.6618 57.9668 11.9618 57.3668 12.5952C56.7668 13.2285 56.5001 14.0618 56.5001 15.1285C56.5001 16.1618 56.8001 16.9952 57.3668 17.5618C57.9335 18.1285 58.7001 18.4285 59.6668 18.4285ZM68.9668 9.69518C69.1668 9.69518 69.3335 9.69518 69.5001 9.72852C69.6668 9.76185 69.8001 9.79518 69.9001 9.82852V12.2952C69.7668 12.1952 69.6001 12.0952 69.3335 12.0285C69.0668 11.9618 68.8001 11.8952 68.4335 11.8952C67.8335 11.8952 67.3335 12.1618 66.9335 12.6618C66.5335 13.1618 66.3001 13.9285 66.3001 14.9952V20.1952H63.8668V9.86185H66.3001V11.4952H66.3335C66.5668 10.9285 66.9001 10.4952 67.3335 10.1618C67.8001 9.86185 68.3335 9.69518 68.9668 9.69518ZM70.0335 15.1952C70.0335 13.4952 70.5335 12.1285 71.4668 11.1285C72.4335 10.1285 73.7668 9.62852 75.4668 9.62852C77.0668 9.62852 78.3335 10.0952 79.2335 11.0618C80.1335 12.0285 80.6001 13.3285 80.6001 14.9618C80.6001 16.6285 80.1001 17.9618 79.1668 18.9618C78.2001 19.9618 76.9001 20.4618 75.2335 20.4618C73.6335 20.4618 72.3668 19.9952 71.4335 19.0618C70.5001 18.0952 70.0335 16.7952 70.0335 15.1952ZM72.5668 15.0952C72.5668 16.1618 72.8001 16.9952 73.3001 17.5618C73.8001 18.1285 74.5001 18.4285 75.4001 18.4285C76.2668 18.4285 76.9668 18.1618 77.4335 17.5618C77.9001 16.9952 78.1335 16.1618 78.1335 15.0285C78.1335 13.9285 77.9001 13.0952 77.4335 12.4952C76.9668 11.9285 76.2668 11.6285 75.4335 11.6285C74.5335 11.6285 73.8668 11.9285 73.3668 12.5285C72.8001 13.1618 72.5668 13.9952 72.5668 15.0952ZM84.2335 12.5952C84.2335 12.9285 84.3335 13.2285 84.5668 13.4285C84.8001 13.6285 85.2668 13.8618 86.0335 14.1618C87.0001 14.5618 87.7001 14.9952 88.0668 15.4618C88.4668 15.9618 88.6668 16.5285 88.6668 17.2285C88.6668 18.1952 88.3001 18.9618 87.5335 19.5618C86.8001 20.1618 85.7668 20.4285 84.5001 20.4285C84.0668 20.4285 83.6001 20.3618 83.0668 20.2618C82.5335 20.1618 82.1001 20.0285 81.7335 19.8618V17.4618C82.1668 17.7618 82.6668 18.0285 83.1668 18.1952C83.6668 18.3618 84.1335 18.4618 84.5668 18.4618C85.1001 18.4618 85.5335 18.3952 85.7668 18.2285C86.0335 18.0618 86.1668 17.8285 86.1668 17.4618C86.1668 17.1285 86.0335 16.8618 85.7668 16.5952C85.5001 16.3618 84.9668 16.0952 84.2335 15.7952C83.3335 15.4285 82.7001 14.9952 82.3335 14.5285C81.9668 14.0618 81.7668 13.4618 81.7668 12.7285C81.7668 11.7952 82.1335 11.0285 82.8668 10.4285C83.6001 9.82852 84.5668 9.52852 85.7335 9.52852C86.1001 9.52852 86.5001 9.56185 86.9335 9.66185C87.3668 9.76185 87.7668 9.86185 88.0668 9.96185V12.3285C87.7335 12.1285 87.3668 11.9285 86.9335 11.7618C86.5001 11.5952 86.0668 11.5285 85.6668 11.5285C85.2001 11.5285 84.8335 11.6285 84.6001 11.7952C84.3668 12.0285 84.2335 12.2618 84.2335 12.5952ZM89.7001 15.1952C89.7001 13.4952 90.2001 12.1285 91.1335 11.1285C92.1001 10.1285 93.4335 9.62852 95.1335 9.62852C96.7335 9.62852 98.0001 10.0952 98.9001 11.0618C99.8001 12.0285 100.267 13.3285 100.267 14.9618C100.267 16.6285 99.7668 17.9618 98.8335 18.9618C97.8668 19.9618 96.5668 20.4618 94.9001 20.4618C93.3001 20.4618 92.0335 19.9952 91.1001 19.0618C90.2001 18.0952 89.7001 16.7952 89.7001 15.1952ZM92.2335 15.0952C92.2335 16.1618 92.4668 16.9952 92.9668 17.5618C93.4668 18.1285 94.1668 18.4285 95.0668 18.4285C95.9335 18.4285 96.6335 18.1618 97.1001 17.5618C97.5668 16.9952 97.8001 16.1618 97.8001 15.0285C97.8001 13.9285 97.5668 13.0952 97.1001 12.4952C96.6335 11.9285 95.9335 11.6285 95.1001 11.6285C94.2001 11.6285 93.5335 11.9285 93.0335 12.5285C92.5001 13.1618 92.2335 13.9952 92.2335 15.0952ZM108.367 11.8618H104.733V20.1952H102.267V11.8618H100.533V9.86185H102.267V8.42852C102.267 7.36185 102.633 6.46185 103.333 5.76185C104.033 5.06185 104.933 4.72852 106.033 4.72852C106.333 4.72852 106.6 4.76185 106.833 4.76185C107.067 4.76185 107.267 4.82852 107.433 4.89518V6.99518C107.367 6.96185 107.2 6.89518 107 6.82852C106.8 6.76185 106.567 6.72852 106.3 6.72852C105.8 6.72852 105.4 6.89518 105.133 7.19518C104.867 7.49518 104.733 7.99518 104.733 8.59518V9.82852H108.367V7.49518L110.8 6.76185V9.82852H113.267V11.8285H110.8V16.6618C110.8 17.2952 110.933 17.7285 111.133 17.9952C111.367 18.2618 111.733 18.3952 112.233 18.3952C112.367 18.3952 112.533 18.3618 112.733 18.2952C112.933 18.2285 113.1 18.1618 113.233 18.0618V20.0618C113.067 20.1618 112.833 20.2285 112.467 20.2952C112.1 20.3618 111.767 20.3952 111.4 20.3952C110.367 20.3952 109.6 20.1285 109.1 19.5952C108.6 19.0618 108.333 18.2285 108.333 17.1285L108.367 11.8618Z" fill="#737373"/>
<path d="M12.1334 0.996094H0.733398V12.3961H12.1334V0.996094Z" fill="#F25022"/>
<path d="M24.733 0.996094H13.333V12.3961H24.733V0.996094Z" fill="#7FBA00"/>
<path d="M12.1334 13.5957H0.733398V24.9957H12.1334V13.5957Z" fill="#00A4EF"/>
<path d="M24.733 13.5957H13.333V24.9957H24.733V13.5957Z" fill="#FFB900"/>
</g>
<defs>
<clipPath id="clip0_34_1531">
<rect width="112.533" height="24" fill="white" transform="translate(0.733398 0.996094)"/>
</clipPath>
</defs>
</svg>
