<svg width="98" height="25" viewBox="0 0 98 25" fill="none" xmlns="http://www.w3.org/2000/svg">
<g clip-path="url(#clip0_34_1494)">
<path fill-rule="evenodd" clip-rule="evenodd" d="M88.3318 24.9961L94.8824 6.86903C94.8824 6.86903 89.9694 6.86904 85.0565 7.82904L78.8447 24.9961H88.3318ZM87.2024 1.95609L85.96 5.45727C90.9294 4.49727 95.7859 4.49727 95.7859 4.49727L97.0283 0.996094C97.0283 0.996094 92.1153 0.996094 87.2024 1.95609Z" fill="#136DBA"/>
<path fill-rule="evenodd" clip-rule="evenodd" d="M51.7383 24.0361C55.07 24.6573 58.5147 24.9961 62.0724 24.9961C67.663 24.9961 69.9783 24.4314 72.8583 22.9632C75.343 21.7208 76.9806 20.3655 77.6583 18.0502C78.2795 16.0737 77.4889 14.2102 75.7383 13.0243C73.9877 11.8384 72.2371 11.2737 70.2042 10.1443C68.3971 9.18433 67.4371 8.39374 67.55 7.37727C67.7759 5.23139 70.1477 4.49727 73.31 4.49727C76.4159 4.49727 79.4653 4.77962 82.4018 5.34433L83.5877 2.01256C80.2559 1.33492 76.8112 0.996094 73.2536 0.996094C67.663 0.996094 65.3477 1.5608 62.4677 3.02903C59.983 4.27139 58.3453 5.62668 57.6677 7.94198C57.0465 9.91845 57.8371 11.782 59.5877 12.9679C61.3383 14.1537 63.0889 14.7184 65.1218 15.8479C66.9289 16.8079 67.8889 17.5984 67.7759 18.6149C67.55 20.7608 65.1783 21.4949 62.0159 21.4949C58.91 21.4949 55.8606 21.2126 52.9242 20.6479L51.7383 24.0361Z" fill="#136DBA"/>
<path fill-rule="evenodd" clip-rule="evenodd" d="M48.1246 24.9961L54.2234 8.16786C54.7317 6.81256 54.7317 4.32786 53.3764 3.02903C51.9646 1.67374 50.3834 0.996094 47.334 0.996094C44.3411 0.996094 41.8564 1.78668 39.9364 2.57727C38.8634 2.97256 37.2823 3.81962 35.5317 4.89256C35.3623 4.21492 35.0234 3.59374 34.5717 3.08551C33.1599 1.67374 31.5223 0.996094 28.5293 0.996094C25.5364 0.996094 23.0517 1.78668 21.0752 2.57727C20.0023 2.97256 18.4211 3.81962 16.6705 4.89256C16.5011 4.21492 16.1623 3.59374 15.7105 3.08551C14.2987 1.67374 12.7176 0.996094 9.66815 0.996094L0.97168 24.9961H10.4587L14.807 12.9679C15.5976 10.7655 17.7434 8.73256 18.9293 7.82904C20.454 6.64315 27.1176 4.83609 25.3105 9.86198L19.8329 24.9961H29.3199L33.6682 12.9679C34.4587 10.7655 36.6046 8.73256 37.7905 7.82904C39.3152 6.64315 45.9787 4.83609 44.1717 9.86198L38.694 24.9961H48.1246Z" fill="#136DBA"/>
</g>
<defs>
<clipPath id="clip0_34_1494">
<rect width="96.0565" height="24" fill="white" transform="translate(0.97168 0.996094)"/>
</clipPath>
</defs>
</svg>
