<svg width="154" height="25" viewBox="0 0 154 25" fill="none" xmlns="http://www.w3.org/2000/svg">
<g clip-path="url(#clip0_34_1501)">
<path d="M146.987 8.57117V7.09608C146.987 6.3435 146.839 5.59829 146.551 4.90299C146.263 4.2077 145.841 3.57592 145.309 3.04377C144.777 2.51161 144.145 2.08948 143.45 1.80148C142.754 1.51348 142.009 1.36523 141.257 1.36523H130.702V24.6277H133.261V14.302H138.056L144.03 24.6277H146.98L141.006 14.302H141.249C142.002 14.3029 142.748 14.1554 143.445 13.8679C144.141 13.5803 144.773 13.1583 145.306 12.6261C145.839 12.0938 146.262 11.4617 146.55 10.766C146.839 10.0702 146.987 9.32437 146.987 8.57117ZM133.261 3.92459H141.257C142.097 3.92654 142.903 4.2613 143.497 4.85565C144.091 5.45 144.426 6.25555 144.428 7.09608V8.57117C144.426 9.4117 144.091 10.2172 143.497 10.8116C142.903 11.4059 142.097 11.7407 141.257 11.7427H133.261V3.92459Z" fill="#00D94A"/>
<path d="M16.75 8.57117V7.09608C16.75 6.3435 16.6018 5.59829 16.3138 4.90299C16.0258 4.2077 15.6037 3.57592 15.0715 3.04377C14.5394 2.51161 13.9076 2.08948 13.2123 1.80148C12.517 1.51348 11.7718 1.36523 11.0192 1.36523H0.464844V24.6277H3.02415V14.302H7.84038L13.8146 24.6277H16.7648L10.7906 14.302H11.034C12.5513 14.2981 14.0052 13.6926 15.0767 12.6182C16.1483 11.5439 16.75 10.0885 16.75 8.57117ZM3.02415 3.92459H11.0192C11.8598 3.92654 12.6653 4.2613 13.2597 4.85565C13.854 5.45 14.1888 6.25555 14.1907 7.09608V8.57117C14.1888 9.4117 13.854 10.2172 13.2597 10.8116C12.6653 11.4059 11.8598 11.7407 11.0192 11.7427H3.02415V3.92459Z" fill="#00D94A"/>
<path d="M65.583 1.36523V3.92455H77.5387L67.0655 22.061L65.583 24.6203H68.5406H80.4816L81.9567 22.061H70.0157L80.489 3.92455L81.9641 1.36523H79.0139H65.583Z" fill="#00D94A"/>
<path d="M98.1465 1.36523V3.92454H112.949L114.424 1.36523H98.1465Z" fill="#00D94A"/>
<path d="M98.1465 11.7129V14.2722H112.949L114.424 11.7129H98.1465Z" fill="#00D94A"/>
<path d="M98.1465 22.0605V24.6199H112.949L114.424 22.0605H98.1465Z" fill="#00D94A"/>
<path d="M41.1259 8.19498L47.7639 24.6203H50.5224L42.5052 4.78011L41.1259 1.36523L39.7467 4.78011L31.7295 24.6203H34.4879L41.1259 8.19498Z" fill="#00D94A"/>
</g>
<defs>
<clipPath id="clip0_34_1501">
<rect width="153.809" height="24" fill="white" transform="translate(0.0957031 0.996094)"/>
</clipPath>
</defs>
</svg>
