<svg width="40" height="48" viewBox="0 0 40 48" fill="none" xmlns="http://www.w3.org/2000/svg">
<path d="M38.2907 16.3632C38.0123 16.5792 33.0971 19.3488 33.0971 25.5072C33.0971 32.6304 39.3515 35.1504 39.5387 35.2128C39.5099 35.3664 38.5451 38.664 36.2411 42.024C34.1867 44.9808 32.0411 47.9328 28.7771 47.9328C25.5131 47.9328 24.6731 46.0368 20.9051 46.0368C17.2331 46.0368 15.9275 47.9952 12.9419 47.9952C9.95631 47.9952 7.87311 45.2592 5.47791 41.8992C2.70351 37.9536 0.461914 31.824 0.461914 26.0064C0.461914 16.6752 6.52911 11.7264 12.5003 11.7264C15.6731 11.7264 18.3179 13.8096 20.3099 13.8096C22.2059 13.8096 25.1627 11.6016 28.7723 11.6016C30.1403 11.6016 35.0555 11.7264 38.2907 16.3632ZM27.0587 7.6512C28.5515 5.88 29.6075 3.4224 29.6075 0.9648C29.6075 0.624 29.5787 0.2784 29.5163 0C27.0875 0.0912 24.1979 1.6176 22.4555 3.6384C21.0875 5.1936 19.8107 7.6512 19.8107 10.1424C19.8107 10.5168 19.8731 10.8912 19.9019 11.0112C20.0555 11.04 20.3051 11.0736 20.5547 11.0736C22.7339 11.0736 25.4747 9.6144 27.0587 7.6512Z" fill="#303D48"/>
</svg>
