<svg width="158" height="25" viewBox="0 0 158 25" fill="none" xmlns="http://www.w3.org/2000/svg">
<path d="M143.558 15.1397L145.881 7.14371H145.917L148.233 15.1397H143.558ZM150.943 24.5804H157.75L150.728 1.41718H141.064L134.044 24.5804H140.848L142.091 20.2985H149.705L150.943 24.5804ZM29.8179 12.9941C29.8179 11.7248 29.8513 10.9717 29.8754 10.414C30.0528 6.83911 31.4654 6.4207 34.2088 6.4207C36.9549 6.4207 38.3668 6.83911 38.5462 10.414C38.5703 10.973 38.6031 11.7261 38.6031 12.9941C38.6031 14.2714 38.5703 15.0212 38.5462 15.5876C38.3661 19.1538 36.9543 19.5748 34.2088 19.5748C31.4647 19.5748 30.0528 19.1544 29.8754 15.5876C29.8513 15.0212 29.8179 14.2721 29.8179 12.9941ZM34.2088 24.9961C41.1993 24.9961 44.5707 23.769 45.0473 17.46C45.1631 15.9604 45.1852 14.42 45.1879 12.9941C45.1879 11.5748 45.1631 10.0384 45.0473 8.53149C44.57 2.2299 41.1993 0.996094 34.2088 0.996094C27.2231 0.996094 23.8503 2.2299 23.3737 8.53149C23.2592 10.0384 23.2371 11.5748 23.2371 12.9941C23.2371 14.42 23.2585 15.9604 23.3737 17.46C23.8503 23.769 27.2231 24.9961 34.2088 24.9961ZM0.25 1.41785V7.19258H7.17284V24.5804H14.1037V7.19258H21.0266V1.41785H0.25ZM99.9574 1.41785H106.532V24.581H99.9574V1.41785ZM80.0866 9.87375V1.41785H73.5447V24.5804H80.0866V15.6525H87.6803V24.5804H94.2102V1.41785H87.6803V9.87375H80.0866ZM118.893 6.71459H123.422C124.613 6.71459 125.341 7.27693 125.341 8.62187C125.341 9.78271 124.62 10.4917 123.422 10.4917H118.893V6.71459ZM118.893 15.0681H123.422C125.258 15.0681 125.639 15.8707 125.639 17.1755C125.639 18.4722 124.925 19.2743 123.422 19.2743H118.893V15.0681ZM128.153 12.4753C131.065 11.7322 131.918 9.98555 131.918 7.47241C131.918 2.38455 128.716 1.41718 124.16 1.41718H112.364V24.5804H124.749C130.449 24.5804 132.366 22.1241 132.366 18.3437C132.366 15.7114 131.766 13.3857 128.153 12.4753ZM48.9958 16.9787H55.2257C55.2318 18.1087 55.379 18.8585 55.922 19.2635C56.5412 19.7335 57.0955 19.8935 58.9372 19.8935C60.7099 19.8935 62.6487 19.8935 62.6487 17.7037C62.6487 15.9825 61.5668 15.5976 59.5625 15.4878C54.5984 15.2247 52.8016 15.0808 50.9519 13.7057C49.694 12.7712 49.042 10.9516 49.042 8.48329C49.042 4.29116 50.5041 2.8217 52.6142 1.79542C54.7919 0.739692 63.3389 0.739692 65.6351 1.79542C68.5312 3.13099 68.6182 6.01166 68.6182 8.68881H62.3996C62.3876 7.32714 62.0789 6.93953 61.8279 6.68245C61.1825 6.11342 60.2627 5.99358 58.9372 5.99358C57.3298 5.99358 55.4748 6.06522 55.4748 8.01601C55.4748 9.50019 56.1101 10.1281 57.8051 10.2332C60.1261 10.3832 64.6965 10.5265 66.3266 11.4885C68.6169 12.8415 69.2026 14.6717 69.2026 17.6595C69.2026 21.9722 67.6602 23.2334 65.5186 24.1814C63.0396 25.2813 54.7564 25.2813 52.0666 24.0957C49.0547 22.7862 48.9958 20.1653 48.9958 16.9787Z" fill="#EC3B3B"/>
</svg>
