<svg width="48" height="49" viewBox="0 0 48 49" fill="none" xmlns="http://www.w3.org/2000/svg">
<g clip-path="url(#clip0_34_1518)">
<mask id="mask0_34_1518" style="mask-type:luminance" maskUnits="userSpaceOnUse" x="-178" y="-49" width="270" height="192">
<path d="M-177.893 -48.4877H91.5122V142.002H-177.893V-48.4877Z" fill="white"/>
</mask>
<g mask="url(#mask0_34_1518)">
<path fill-rule="evenodd" clip-rule="evenodd" d="M46.1724 48.9922H1.81824C0.811851 48.9922 -0.00390625 48.1764 -0.00390625 47.1699V2.81273C-0.00390625 1.80627 0.811851 0.990918 1.81824 0.990918H46.1724C47.1787 0.990918 47.9945 1.80627 47.9945 2.81273V47.1699C47.9945 48.1764 47.1787 48.9922 46.1724 48.9922Z" fill="#FF7A00"/>
<path d="M37.6332 16.0896H33.857C33.6953 16.0896 33.5645 16.2182 33.5645 16.3767V33.6069C33.5645 33.764 33.6953 33.8926 33.857 33.8926H37.6332C37.7935 33.8926 37.9262 33.764 37.9262 33.6069V16.3767C37.9262 16.2182 37.7935 16.0896 37.6332 16.0896Z" fill="white"/>
<path d="M24.74 16.0896H10.3561C10.1944 16.0896 10.0645 16.2182 10.0645 16.3767V33.6069C10.0645 33.764 10.1944 33.8926 10.3561 33.8926H14.1332C14.294 33.8926 14.4272 33.764 14.4272 33.6069V20.0838C14.4272 19.9276 14.5571 19.798 14.7188 19.798H22.8549C25.1428 19.798 25.7923 21.5505 25.7923 22.681V33.6069C25.7923 33.764 25.9237 33.8926 26.0854 33.8926H29.8601C30.0209 33.8926 30.1527 33.764 30.1527 33.6069V21.3837C30.1527 20.3755 30.0314 18.9257 28.7306 17.6496C27.3696 16.3175 26.1281 16.0896 24.74 16.0896Z" fill="white"/>
<path d="M22.0938 22.9515H18.1284C17.9667 22.9515 17.834 23.0802 17.834 23.2377V33.6073C17.834 33.764 17.9667 33.8926 18.1284 33.8926H22.0938C22.2541 33.8926 22.3855 33.764 22.3855 33.6073V23.2377C22.3855 23.0802 22.2541 22.9515 22.0938 22.9515Z" fill="white"/>
</g>
</g>
<defs>
<clipPath id="clip0_34_1518">
<rect width="48" height="48" fill="white" transform="translate(0 0.996094)"/>
</clipPath>
</defs>
</svg>
