<svg width="41" height="48" viewBox="0 0 41 48" fill="none" xmlns="http://www.w3.org/2000/svg">
<path d="M26.7941 7.00674L26.7872 7.01493L26.7804 7.02326C26.0836 7.88691 25.1132 8.65975 24.063 9.21431C23.1068 9.71918 22.1405 10.014 21.3112 10.0655C21.3375 7.9106 22.4617 5.71385 23.7064 4.29887L23.7064 4.2989L23.7129 4.29141C25.0726 2.7144 27.2 1.48595 29.1061 1.1129C29.0645 3.25236 28.1281 5.42394 26.7941 7.00674ZM29.2723 12.6016C30.4912 12.6016 34.4509 12.7117 37.3601 16.1419C37.3243 16.1689 37.2877 16.1969 37.2504 16.2257C36.7089 16.644 36.014 17.2501 35.327 18.0598C33.9478 19.6853 32.5971 22.1386 32.5971 25.5072C32.5971 29.3982 34.3171 32.0555 36.0541 33.7281C37.0749 34.7111 38.1083 35.3623 38.8208 35.7427C38.7002 36.0842 38.535 36.5216 38.3217 37.0275C37.808 38.2457 37.0218 39.8458 35.9185 41.4554C34.8827 42.9462 33.8921 44.3311 32.7848 45.352C31.6954 46.3566 30.5738 46.9328 29.2771 46.9328C27.9141 46.9328 27.0682 46.5642 26.0224 46.1085C25.9915 46.095 25.9605 46.0815 25.9292 46.0679C24.7967 45.5749 23.4943 45.0368 21.4051 45.0368C19.3642 45.0368 17.9694 45.5909 16.7769 46.0949C16.7293 46.115 16.6822 46.1349 16.6355 46.1547C15.5186 46.6275 14.6502 46.9952 13.4419 46.9952C12.2909 46.9952 11.255 46.4791 10.1676 45.4731C9.06255 44.4509 8.00039 43.0135 6.794 41.3213C4.12914 37.5301 1.96191 31.6004 1.96191 26.0064C1.96191 17.1699 7.63725 12.7264 13.0003 12.7264C14.3794 12.7264 15.6785 13.1792 16.9777 13.6969C17.118 13.7529 17.2601 13.8103 17.4031 13.868C17.8971 14.0676 18.4012 14.2712 18.8752 14.4314C19.4897 14.6392 20.15 14.8096 20.8099 14.8096C21.4565 14.8096 22.1262 14.6252 22.7505 14.41C23.1808 14.2615 23.653 14.0745 24.1269 13.8868C24.3385 13.803 24.5504 13.719 24.7592 13.6383C26.167 13.0939 27.6631 12.6016 29.2723 12.6016Z" stroke="#FF730E" stroke-width="2"/>
</svg>
