<svg width="12" height="14" viewBox="0 0 12 14" fill="none" xmlns="http://www.w3.org/2000/svg">
<g id="Group 33488">
<path id="Exclude" fill-rule="evenodd" clip-rule="evenodd" d="M6.38262 13.5457C6.15287 13.7069 5.84646 13.7066 5.61671 13.5455L5.61503 13.5443L5.61131 13.5417L5.59888 13.5329C5.58842 13.5254 5.57365 13.5148 5.55486 13.5011C5.51727 13.4737 5.46356 13.434 5.39601 13.3827C5.261 13.2801 5.07035 13.1307 4.84258 12.94C4.38802 12.5592 3.78058 12.0092 3.17112 11.3324C1.97562 10.005 0.666504 8.0736 0.666504 5.90901C0.666504 4.44081 1.22062 3.02638 2.21682 1.97843C3.21411 0.92934 4.57414 0.333252 5.99984 0.333252C7.42553 0.333252 8.78556 0.929341 9.78285 1.97843C10.779 3.02638 11.3332 4.44081 11.3332 5.90901C11.3332 8.0736 10.024 10.005 8.82856 11.3324C8.2191 12.0092 7.61165 12.5592 7.1571 12.94C6.92933 13.1307 6.73868 13.2801 6.60366 13.3827C6.53612 13.434 6.4824 13.4737 6.44482 13.5011C6.42602 13.5148 6.41125 13.5254 6.40079 13.5329L6.38837 13.5417L6.38465 13.5443L6.38342 13.5452L6.38262 13.5457ZM3.99984 5.66659C3.99984 4.56202 4.89527 3.66659 5.99984 3.66659C7.10441 3.66659 7.99984 4.56202 7.99984 5.66659C7.99984 6.77116 7.10441 7.66659 5.99984 7.66659C4.89527 7.66659 3.99984 6.77116 3.99984 5.66659Z" fill="#FF730E"/>
</g>
</svg>
