<svg width="104" height="18" viewBox="0 0 104 18" fill="none" xmlns="http://www.w3.org/2000/svg">
<path d="M11.6695 3.57971C11.6695 3.57971 11.5483 3.66106 11.4676 3.66106H3.53315C3.53315 3.66106 3.41201 3.70174 3.41201 3.7831V7.56614C3.41201 7.56614 3.45239 7.68818 3.53315 7.68818H8.74201C8.74201 7.68818 8.88334 7.70852 8.94391 7.76953C9.00447 7.83055 9.02466 7.89157 9.02466 7.97292V10.3322C9.02466 10.3322 9.00447 10.4746 8.94391 10.5356C8.88334 10.5966 8.82277 10.617 8.74201 10.617H3.53315C3.53315 10.617 3.41201 10.6577 3.41201 10.739V17.4712C3.41201 17.4712 3.39182 17.6136 3.33125 17.6746C3.27068 17.7356 3.21012 17.756 3.12936 17.756H0.282652C0.282652 17.756 0.141326 17.7356 0.0807576 17.6746C0.0201894 17.6136 0 17.5526 0 17.4712V0.99666C0 0.99666 0.0201894 0.854287 0.0807576 0.79327C0.141326 0.732253 0.201894 0.711914 0.282652 0.711914H11.4474C11.4474 0.711914 11.5887 0.732253 11.6493 0.79327C11.7099 0.854287 11.73 0.915304 11.73 0.99666V3.35598C11.73 3.35598 11.7099 3.49835 11.6493 3.55937L11.6695 3.57971Z" fill="#2F2F31"/>
<path d="M13.8298 3.29491C13.4664 2.92881 13.2847 2.46101 13.2847 1.91186C13.2847 1.36271 13.4664 0.874575 13.8096 0.528813C14.1528 0.183051 14.6172 0 15.1825 0C15.7478 0 16.2121 0.183051 16.5554 0.528813C16.9188 0.894914 17.0803 1.34237 17.0803 1.91186C17.0803 2.48135 16.8986 2.92881 16.5352 3.29491C16.1718 3.66101 15.7074 3.84406 15.1623 3.84406C14.6172 3.84406 14.1528 3.66101 13.7894 3.29491H13.8298Z" fill="#FF730E"/>
<path d="M13.527 17.7152C13.527 17.7152 13.4463 17.5931 13.4463 17.5118V5.5118C13.4463 5.5118 13.4665 5.36942 13.527 5.30841C13.5876 5.24739 13.6482 5.22705 13.7289 5.22705H16.5555C16.5555 5.22705 16.6968 5.24739 16.7574 5.30841C16.8179 5.36942 16.8381 5.43044 16.8381 5.5118V17.4914C16.8381 17.4914 16.8179 17.6338 16.7574 17.6948C16.6968 17.7559 16.6362 17.7762 16.5555 17.7762H13.7289C13.7289 17.7762 13.5876 17.7559 13.527 17.6948V17.7152Z" fill="#2F2F31"/>
<path d="M18.8167 17.695C18.8167 17.695 18.7965 17.5323 18.8571 17.4306L22.7536 11.5933C22.7536 11.5933 22.794 11.4916 22.7536 11.4509L18.8571 5.61366C18.8571 5.61366 18.8167 5.49163 18.8167 5.45095C18.8167 5.32891 18.8975 5.24756 19.059 5.24756H22.0874C22.2287 5.24756 22.3499 5.30858 22.4306 5.45095L24.6111 8.78654C24.6111 8.78654 24.7322 8.88823 24.7726 8.78654L26.953 5.45095C27.0338 5.32891 27.1549 5.24756 27.2963 5.24756H30.5468C30.6679 5.24756 30.7285 5.28824 30.7688 5.34925C30.8092 5.43061 30.7688 5.51197 30.7285 5.61366L26.8521 11.4509C26.8521 11.4509 26.8521 11.5526 26.8521 11.5933L30.7285 17.4306C30.7285 17.4306 30.7688 17.5323 30.7688 17.5933C30.7688 17.7153 30.6881 17.7967 30.5468 17.7967H27.4982C27.3568 17.7967 27.2357 17.7357 27.1549 17.5933L24.9745 14.2577C24.9745 14.2577 24.8735 14.156 24.8331 14.2577L22.6527 17.5933C22.5719 17.7153 22.4508 17.7967 22.3095 17.7967H19.059C18.9378 17.7967 18.8773 17.756 18.8369 17.695H18.8167Z" fill="#2F2F31"/>
<path d="M35.4122 17.2474C34.4633 16.7593 33.7163 16.0474 33.2115 15.1525C32.6866 14.2576 32.4443 13.2203 32.4443 12.061V6.42711C32.4443 5.24745 32.7068 4.2305 33.2115 3.33559C33.7365 2.44067 34.4633 1.74915 35.4122 1.26101C36.3611 0.772876 37.4715 0.528809 38.7232 0.528809C39.975 0.528809 41.0652 0.752537 42.0141 1.22033C42.963 1.68813 43.6898 2.33898 44.2148 3.19321C44.7397 4.04745 45.0021 5.04406 45.0021 6.1627C45.0021 6.30507 44.9012 6.40677 44.7195 6.42711L41.893 6.58982H41.8526C41.6911 6.58982 41.6103 6.50846 41.6103 6.32541C41.6103 5.47118 41.3479 4.77965 40.8229 4.25084C40.298 3.72203 39.6116 3.47796 38.7434 3.47796C37.8753 3.47796 37.1687 3.74236 36.6437 4.25084C36.1188 4.77965 35.8563 5.47118 35.8563 6.32541V12.2034C35.8563 13.0576 36.1188 13.7288 36.6437 14.2576C37.1687 14.7864 37.8753 15.0305 38.7434 15.0305C39.6116 15.0305 40.298 14.7661 40.8229 14.2576C41.3479 13.7288 41.6103 13.0576 41.6103 12.2034C41.6103 12.0203 41.7113 11.939 41.893 11.939L44.7195 12.061C44.7195 12.061 44.8608 12.0813 44.9214 12.1424C44.982 12.183 45.0021 12.2441 45.0021 12.3051C45.0021 13.4237 44.7397 14.4203 44.2148 15.2746C43.6898 16.1288 42.963 16.8 42.0141 17.2678C41.0652 17.7356 39.975 17.9796 38.7232 17.9796C37.4715 17.9796 36.3611 17.7356 35.4122 17.2271V17.2474Z" fill="#2F2F31"/>
<path d="M58.3878 12.3052C58.3878 12.5086 58.2667 12.5899 58.0648 12.5899H50.5745C50.5745 12.5899 50.4534 12.6306 50.4736 12.712C50.514 13.0374 50.6149 13.3628 50.736 13.6882C51.16 14.6035 52.008 15.051 53.3001 15.051C54.3298 15.051 55.1575 14.6035 55.743 13.7899C55.8036 13.6882 55.8843 13.6476 55.9651 13.6476C56.0055 13.6476 56.066 13.6882 56.1266 13.7493L57.8629 15.4781C57.8629 15.4781 57.984 15.6408 57.984 15.7018C57.984 15.7425 57.9437 15.8035 57.8831 15.9052C57.3582 16.5764 56.6717 17.0849 55.8238 17.451C54.9758 17.8171 54.0673 18.0001 53.0578 18.0001C51.6648 18.0001 50.4938 17.6747 49.5247 17.0442C48.5556 16.4137 47.8691 15.5188 47.4452 14.3798C47.1019 13.5662 46.9404 12.5086 46.9404 11.1866C46.9404 10.2916 47.0616 9.49842 47.3038 8.82724C47.6672 7.66792 48.3335 6.75266 49.2622 6.06114C50.1909 5.36961 51.3013 5.04419 52.5733 5.04419C54.1884 5.04419 55.4805 5.51199 56.4698 6.46792C57.4389 7.40351 58.0446 8.66452 58.2465 10.251C58.3474 10.8611 58.3676 11.5527 58.3474 12.3255L58.3878 12.3052ZM50.6351 9.45774C50.5745 9.66113 50.514 9.92554 50.4736 10.2306C50.4736 10.312 50.514 10.3527 50.5947 10.3527H54.7941C54.7941 10.3527 54.9152 10.312 54.8951 10.2306C54.8143 9.76283 54.7739 9.5391 54.7739 9.5391C54.6326 9.05096 54.3701 8.66452 54.0067 8.40012C53.6433 8.13571 53.1991 7.99334 52.654 7.99334C51.6446 7.99334 50.9581 8.48147 50.6351 9.43741V9.45774Z" fill="#2F2F31"/>
<path d="M70.1179 6.24411C70.9053 7.03733 71.3091 8.1153 71.3091 9.49835V17.5119C71.3091 17.5119 71.2889 17.6543 71.2284 17.7153C71.1678 17.7763 71.1072 17.7966 71.0265 17.7966H68.2C68.2 17.7966 68.0586 17.7763 67.9981 17.7153C67.9375 17.6543 67.9173 17.5933 67.9173 17.5119V10.2102C67.9173 9.55936 67.7356 9.03055 67.3722 8.62377C67.0088 8.21699 66.5242 8.0136 65.9387 8.0136C65.3532 8.0136 64.8687 8.21699 64.5053 8.62377C64.1419 9.03055 63.9602 9.55936 63.9602 10.2102V17.5119C63.9602 17.5119 63.94 17.6543 63.8794 17.7153C63.8189 17.7763 63.7583 17.7966 63.6775 17.7966H60.851C60.851 17.7966 60.7097 17.7763 60.6491 17.7153C60.5886 17.6543 60.5684 17.5933 60.5684 17.5119V5.55259C60.5684 5.55259 60.5886 5.41022 60.6491 5.3492C60.7097 5.28818 60.7703 5.26784 60.851 5.26784H63.6775C63.6775 5.26784 63.8189 5.28818 63.8794 5.3492C63.94 5.41022 63.9602 5.47123 63.9602 5.55259V6.40682C63.9602 6.40682 63.9602 6.48818 64.0006 6.50852C64.0409 6.50852 64.0611 6.50852 64.0813 6.48818C64.7476 5.55259 65.7368 5.06445 67.029 5.06445C68.3211 5.06445 69.3709 5.47123 70.1583 6.26445L70.1179 6.24411Z" fill="#2F2F31"/>
<path d="M80.8183 7.93212C80.8183 7.93212 80.6972 8.01348 80.6164 8.01348H78.2946C78.2946 8.01348 78.1735 8.05416 78.1735 8.13551V13.3016C78.1735 13.8304 78.2744 14.2372 78.4965 14.5016C78.7186 14.766 79.0618 14.888 79.5464 14.888H80.354C80.354 14.888 80.4953 14.9084 80.5559 14.9694C80.6164 15.0304 80.6366 15.0914 80.6366 15.1728V17.4914C80.6366 17.6745 80.5357 17.7762 80.354 17.8169C79.6675 17.8575 79.183 17.8575 78.9003 17.8575C77.5678 17.8575 76.5583 17.6338 75.8921 17.1864C75.2258 16.7389 74.8826 15.905 74.8826 14.6643V8.11517C74.8826 8.11517 74.8422 7.99314 74.7615 7.99314H73.3886C73.3886 7.99314 73.2473 7.9728 73.1867 7.91178C73.1261 7.85077 73.106 7.78975 73.106 7.70839V5.53213C73.106 5.53213 73.1261 5.38975 73.1867 5.32874C73.2473 5.26772 73.3078 5.24738 73.3886 5.24738H74.7615C74.7615 5.24738 74.8826 5.2067 74.8826 5.12535V2.21687C74.8826 2.21687 74.9028 2.0745 74.9634 2.01348C75.024 1.95247 75.0845 1.93213 75.1653 1.93213H77.8707C77.8707 1.93213 78.012 1.95247 78.0725 2.01348C78.1331 2.0745 78.1533 2.13552 78.1533 2.21687V5.12535C78.1533 5.12535 78.1937 5.24738 78.2744 5.24738H80.5962C80.5962 5.24738 80.7376 5.26772 80.7981 5.32874C80.8587 5.38975 80.8789 5.45077 80.8789 5.53213V7.70839C80.8789 7.70839 80.8587 7.85077 80.7981 7.91178L80.8183 7.93212Z" fill="#2F2F31"/>
<path d="M93.901 12.3052C93.901 12.5086 93.7799 12.5899 93.578 12.5899H86.0877C86.0877 12.5899 85.9666 12.6306 85.9868 12.712C86.0271 13.0374 86.1281 13.3628 86.2492 13.6882C86.6732 14.6035 87.5212 15.051 88.8133 15.051C89.8429 15.051 90.6707 14.6035 91.2562 13.7899C91.3168 13.6882 91.3975 13.6476 91.4783 13.6476C91.5187 13.6476 91.5792 13.6882 91.6398 13.7493L93.3761 15.4781C93.3761 15.4781 93.4972 15.6408 93.4972 15.7018C93.4972 15.7425 93.4568 15.8035 93.3963 15.9052C92.8713 16.5764 92.1849 17.0849 91.337 17.451C90.489 17.8171 89.5805 18.0001 88.571 18.0001C87.1779 18.0001 86.0069 17.6747 85.0379 17.0442C84.0688 16.4137 83.3823 15.5188 82.9583 14.3798C82.6151 13.5662 82.4536 12.5086 82.4536 11.1866C82.4536 10.2916 82.5748 9.49842 82.817 8.82724C83.1804 7.66792 83.8467 6.75266 84.7754 6.06114C85.7041 5.36961 86.8145 5.04419 88.0865 5.04419C89.7016 5.04419 90.9937 5.51199 91.983 6.46792C92.9521 7.40351 93.5578 8.66452 93.7597 10.251C93.8606 10.8611 93.8808 11.5527 93.8606 12.3255L93.901 12.3052ZM86.1483 9.45774C86.0877 9.66113 86.0271 9.92554 85.9868 10.2306C85.9868 10.312 86.0271 10.3527 86.1079 10.3527H90.3073C90.3073 10.3527 90.4284 10.312 90.4082 10.2306C90.3275 9.76283 90.2871 9.5391 90.2871 9.5391C90.1458 9.05096 89.8833 8.66452 89.5199 8.40012C89.1565 8.13571 88.7123 7.99334 88.1672 7.99334C87.1577 7.99334 86.4713 8.48147 86.1483 9.43741V9.45774Z" fill="#2F2F31"/>
<path d="M103.592 5.4304C103.713 5.49142 103.774 5.61345 103.733 5.7965L103.228 8.58294C103.228 8.78633 103.107 8.82701 102.885 8.74565C102.643 8.6643 102.36 8.62362 102.037 8.62362C101.916 8.62362 101.734 8.62362 101.512 8.6643C100.927 8.70498 100.442 8.92871 100.039 9.31515C99.6347 9.70159 99.4328 10.2101 99.4328 10.8406V17.5117C99.4328 17.5117 99.4126 17.6541 99.3521 17.7151C99.2915 17.7762 99.2309 17.7965 99.1502 17.7965H96.3237C96.3237 17.7965 96.1823 17.7762 96.1218 17.7151C96.0612 17.6541 96.041 17.5931 96.041 17.5117V5.55244C96.041 5.55244 96.0612 5.41007 96.1218 5.34905C96.1823 5.28803 96.2429 5.26769 96.3237 5.26769H99.1502C99.1502 5.26769 99.2915 5.28803 99.3521 5.34905C99.4126 5.41007 99.4328 5.47108 99.4328 5.55244V6.48803C99.4328 6.48803 99.4328 6.56939 99.4732 6.58972C99.5136 6.58972 99.5338 6.58972 99.554 6.56939C100.22 5.59312 101.109 5.10498 102.219 5.10498C102.804 5.10498 103.269 5.22701 103.592 5.45074V5.4304Z" fill="#2F2F31"/>
</svg>
