<svg width="16" height="16" viewBox="0 0 16 16" fill="none" xmlns="http://www.w3.org/2000/svg">
<g id="icon_filled/mail">
<path id="Exclude" fill-rule="evenodd" clip-rule="evenodd" d="M3.33333 2.3999C2.04467 2.3999 1 3.47442 1 4.7999V11.1999C1 12.5254 2.04467 13.5999 3.33333 13.5999H12.6667C13.9553 13.5999 15 12.5254 15 11.1999V4.7999C15 3.47442 13.9553 2.3999 12.6667 2.3999H3.33333ZM4.93729 5.35329C4.6354 5.11179 4.1949 5.16073 3.95339 5.46262C3.71189 5.7645 3.76083 6.205 4.06271 6.44651L7.56271 9.24651L8 9.59634L8.43729 9.24651L11.9373 6.44651C12.2392 6.205 12.2881 5.7645 12.0466 5.46262C11.8051 5.16073 11.3646 5.11179 11.0627 5.35329L8 7.80347L4.93729 5.35329Z" fill="#FF730E"/>
</g>
</svg>
