<svg width="24" height="24" viewBox="0 0 24 24" fill="none" xmlns="http://www.w3.org/2000/svg">
<g id="icon_filled/Message 2">
<g id="Group 33616">
<g id="Group 33491">
<path id="Exclude" fill-rule="evenodd" clip-rule="evenodd" d="M12 2C6.47715 2 2 6.47715 2 12C2 13.8153 2.48451 15.5196 3.33127 16.9883C3.50372 17.2874 3.5333 17.6516 3.38777 17.9647L2.53406 19.8016C2.00986 20.7933 2.72736 22 3.86159 22H12C17.5228 22 22 17.5228 22 12C22 6.47715 17.5228 2 12 2ZM9 9C8.44772 9 8 9.44772 8 10C8 10.5523 8.44772 11 9 11H11C11.5523 11 12 10.5523 12 10C12 9.44772 11.5523 9 11 9H9ZM9 13C8.44772 13 8 13.4477 8 14C8 14.5523 8.44772 15 9 15H15C15.5523 15 16 14.5523 16 14C16 13.4477 15.5523 13 15 13H9Z" fill="#FF730E"/>
</g>
</g>
</g>
</svg>
