<svg width="47" height="48" viewBox="0 0 47 48" fill="none" xmlns="http://www.w3.org/2000/svg">
<g clip-path="url(#clip0_34_1659)">
<path d="M44.1239 10.7261C43.0589 9.66109 41.5139 9.47836 40.6739 10.3197L22.0235 28.9702C21.2162 29.7774 20.5985 30.7579 20.2112 31.8447L18.6689 36.1811L23.0053 34.6388C24.0935 34.2515 25.0726 33.6338 25.8799 32.8265L44.5303 14.1761C45.3703 13.3361 45.1889 11.7911 44.1239 10.7261Z" stroke="#FF730E" stroke-width="2" stroke-linecap="round" stroke-linejoin="round"/>
<path d="M34.6687 29.4554V44.7282C34.6687 45.9336 33.6923 46.91 32.4869 46.91H4.12322C2.91777 46.91 1.94141 45.9336 1.94141 44.7282V3.27361C1.94141 2.06816 2.91777 1.0918 4.12322 1.0918H32.4869C33.6923 1.0918 34.6687 2.06816 34.6687 3.27361V10.91" stroke="#FF730E" stroke-width="2" stroke-linecap="round" stroke-linejoin="round"/>
<path d="M17.2139 43.6367H19.3957" stroke="#FF730E" stroke-width="2" stroke-linecap="round" stroke-linejoin="round"/>
</g>
<defs>
<clipPath id="clip0_34_1659">
<rect width="45.2986" height="48" fill="white" transform="translate(0.850586)"/>
</clipPath>
</defs>
</svg>
