<svg width="43" height="49" viewBox="0 0 43 49" fill="none" xmlns="http://www.w3.org/2000/svg">
<g clip-path="url(#clip0_34_1711)">
<path d="M39.6334 47.4331H3.36673C2.1934 47.4331 1.2334 46.4731 1.2334 45.2997V11.0597C1.2334 10.4517 1.4894 9.86507 1.94807 9.47041L10.2254 2.11041C10.6201 1.75841 11.1214 1.56641 11.6441 1.56641H31.3561C31.8787 1.56641 32.3801 1.75841 32.7747 2.11041L41.0521 9.47041C41.5107 9.87574 41.7667 10.4517 41.7667 11.0597V45.2997C41.7667 46.4731 40.8067 47.4331 39.6334 47.4331Z" stroke="#FF730E" stroke-width="2" stroke-linejoin="round"/>
<path d="M1.2334 12.2324H41.7667" stroke="#FF730E" stroke-width="2" stroke-linejoin="round"/>
<path d="M1.2334 23.9668H41.7667" stroke="#FF730E" stroke-width="2" stroke-linejoin="round"/>
<path d="M1.2334 35.6992H41.7667" stroke="#FF730E" stroke-width="2" stroke-linejoin="round"/>
<path d="M37.5006 18.6328H31.1006" stroke="#FF730E" stroke-width="2" stroke-linejoin="round"/>
<path d="M37.5006 30.3672H31.1006" stroke="#FF730E" stroke-width="2" stroke-linejoin="round"/>
<path d="M37.5006 42.0996H31.1006" stroke="#FF730E" stroke-width="2" stroke-linejoin="round"/>
<path d="M7.63333 18.6328H5.5" stroke="#FF730E" stroke-width="2" stroke-linejoin="round"/>
<path d="M7.63333 30.3672H5.5" stroke="#FF730E" stroke-width="2" stroke-linejoin="round"/>
<path d="M7.63333 42.0996H5.5" stroke="#FF730E" stroke-width="2" stroke-linejoin="round"/>
<path d="M11.8999 18.6328H9.7666" stroke="#FF730E" stroke-width="2" stroke-linejoin="round"/>
<path d="M11.8999 30.3672H9.7666" stroke="#FF730E" stroke-width="2" stroke-linejoin="round"/>
<path d="M11.8999 42.0996H9.7666" stroke="#FF730E" stroke-width="2" stroke-linejoin="round"/>
</g>
<defs>
<clipPath id="clip0_34_1711">
<rect width="42.6667" height="48" fill="white" transform="translate(0.166992 0.5)"/>
</clipPath>
</defs>
</svg>
