<svg width="61" height="48" viewBox="0 0 61 48" fill="none" xmlns="http://www.w3.org/2000/svg">
<g clip-path="url(#clip0_34_1636)">
<path d="M7.76367 27.79V2.52683C7.76367 1.82893 8.32893 1.26367 9.02683 1.26367H50.711C51.4089 1.26367 51.9742 1.82893 51.9742 2.52683V27.79" stroke="#FF730E" stroke-width="2" stroke-linecap="round" stroke-linejoin="round"/>
<path d="M58.2894 46.7364H2.71042L1.44727 44.5543L7.76305 27.7891H51.9736L59.5525 44.5543L58.2894 46.7364Z" stroke="#FF730E" stroke-width="2" stroke-linecap="round" stroke-linejoin="round"/>
<path d="M15.9736 32.8418H17.2368" stroke="#FF730E" stroke-width="2" stroke-linecap="round" stroke-linejoin="round"/>
<path d="M19.7637 36.6309H21.0268" stroke="#FF730E" stroke-width="2" stroke-linecap="round" stroke-linejoin="round"/>
<path d="M22.29 32.8418H23.5532" stroke="#FF730E" stroke-width="2" stroke-linecap="round" stroke-linejoin="round"/>
<path d="M26.0791 36.6309H27.3423" stroke="#FF730E" stroke-width="2" stroke-linecap="round" stroke-linejoin="round"/>
<path d="M28.6055 32.8418H29.8686" stroke="#FF730E" stroke-width="2" stroke-linecap="round" stroke-linejoin="round"/>
<path d="M32.3955 36.6309H33.6587" stroke="#FF730E" stroke-width="2" stroke-linecap="round" stroke-linejoin="round"/>
<path d="M34.9219 32.8418H36.185" stroke="#FF730E" stroke-width="2" stroke-linecap="round" stroke-linejoin="round"/>
<path d="M38.7109 36.6309H39.9741" stroke="#FF730E" stroke-width="2" stroke-linecap="round" stroke-linejoin="round"/>
<path d="M41.2373 32.8418H42.5005" stroke="#FF730E" stroke-width="2" stroke-linecap="round" stroke-linejoin="round"/>
<path d="M24.1846 43.7883L25.4477 41.6836H34.2898L35.553 43.7883" stroke="#FF730E" stroke-width="2" stroke-linecap="round" stroke-linejoin="round"/>
</g>
<defs>
<clipPath id="clip0_34_1636">
<rect width="60.6316" height="48" fill="white" transform="translate(0.18457)"/>
</clipPath>
</defs>
</svg>
