<svg width="16" height="16" viewBox="0 0 16 16" fill="none" xmlns="http://www.w3.org/2000/svg">
<g id="icon_filled/Phone_call">
<path id="Ellipse 223 (Stroke)" fill-rule="evenodd" clip-rule="evenodd" d="M8.71638 4.42585C8.8584 4.07813 9.26027 3.90942 9.61399 4.04903C10.1516 4.26119 10.6379 4.58186 11.0415 4.99032C11.4451 5.39878 11.757 5.88594 11.9572 6.42032C12.0888 6.77195 11.9056 7.16193 11.5479 7.29138C11.1902 7.42082 10.7935 7.24071 10.6618 6.88908C10.5284 6.53283 10.3204 6.20806 10.0514 5.93575C9.78229 5.66345 9.45808 5.44966 9.09971 5.30822C8.74599 5.16862 8.57436 4.77357 8.71638 4.42585Z" fill="#FF730E"/>
<path id="Ellipse 224 (Stroke)" fill-rule="evenodd" clip-rule="evenodd" d="M8.69112 1.86509C8.79366 1.48243 9.18699 1.25534 9.56966 1.35787C10.7859 1.68377 11.895 2.32407 12.7853 3.21444C13.6757 4.1048 14.316 5.21384 14.6419 6.4301C14.7444 6.81276 14.5173 7.2061 14.1347 7.30863C13.752 7.41117 13.3587 7.18408 13.2561 6.80141C12.9954 5.8284 12.4832 4.94117 11.7709 4.22888C11.0586 3.51659 10.1714 3.00435 9.19835 2.74363C8.81568 2.64109 8.58859 2.24776 8.69112 1.86509Z" fill="#FF730E"/>
<path id="Union" fill-rule="evenodd" clip-rule="evenodd" d="M7.00617 5.58401C6.55366 3.94904 4.92455 2.93921 3.31243 3.47693C2.26209 3.82724 1.62272 4.48081 1.41077 5.35253C1.21376 6.1628 1.4191 7.03719 1.73801 7.80992C2.38022 9.36603 3.6513 10.9077 4.37096 11.6279C5.07403 12.3315 6.61349 13.6081 8.17253 14.2562C8.9466 14.578 9.82426 14.7869 10.6383 14.5904C11.5143 14.3788 12.1711 13.7362 12.5234 12.6785C13.0603 11.0664 12.0523 9.43605 10.4177 8.98295L10.4177 8.98295C9.30037 8.67326 8.12863 8.96856 7.32898 9.68626C7.14128 9.54091 6.96077 9.38215 6.78861 9.20986C6.61561 9.03673 6.45625 8.85513 6.31041 8.66625C7.02249 7.86632 7.31451 6.69811 7.00617 5.58401L7.00617 5.58401Z" fill="#FF730E"/>
</g>
</svg>
