<svg width="61" height="48" viewBox="0 0 61 48" fill="none" xmlns="http://www.w3.org/2000/svg">
<path d="M46.5 40.616H56.3462C57.7 40.616 58.8077 39.5083 58.8077 38.1544V16.0006C58.8077 14.6468 57.7 13.5391 56.3462 13.5391H51.4231" stroke="#FF730E" stroke-width="2" stroke-miterlimit="10" stroke-linecap="round"/>
<path d="M9.577 13.5391H4.65392C3.30008 13.5391 2.19238 14.6468 2.19238 16.0006V38.1544C2.19238 39.5083 3.30008 40.616 4.65392 40.616H14.5001" stroke="#FF730E" stroke-width="2" stroke-miterlimit="10" stroke-linecap="round"/>
<path d="M46.5 1.23047H14.5V25.8459H46.5V1.23047Z" stroke="#FF730E" stroke-width="2" stroke-miterlimit="10" stroke-linecap="round"/>
<path d="M46.5 34.4609H14.5V46.7686H46.5V34.4609Z" stroke="#FF730E" stroke-width="2" stroke-miterlimit="10" stroke-linecap="round"/>
<path d="M7.11621 25.8457H53.8854" stroke="#FF730E" stroke-width="2" stroke-miterlimit="10" stroke-linecap="round"/>
<path d="M8.34668 30.7695V33.2311" stroke="#FF730E" stroke-width="2" stroke-miterlimit="10" stroke-linecap="round"/>
<path d="M9.57715 22.154V7.38477" stroke="#FF730E" stroke-width="2" stroke-miterlimit="10" stroke-linecap="round"/>
<path d="M51.4238 22.154V7.38477" stroke="#FF730E" stroke-width="2" stroke-miterlimit="10" stroke-linecap="round"/>
</svg>
