<svg width="45" height="48" viewBox="0 0 45 48" fill="none" xmlns="http://www.w3.org/2000/svg">
<g clip-path="url(#clip0_34_1768)">
<path d="M2.54655 27.7949C3.0271 30.0884 3.93358 32.2181 5.16771 34.1075L1.79297 37.4822L7.19911 42.8884L10.3008 39.5136C12.1902 40.7478 14.1561 41.6543 16.3404 42.1348V46.8966H23.9855V42.1348C27.2619 41.6543 28.6817 40.7478 30.5711 39.5136L34.0878 42.8884L39.5595 37.4822L36.2175 33.8563C37.4517 31.9669 38.4018 30.5689 38.8715 27.2925H43.6332V19.6474H38.8715C38.3909 17.4631 37.4844 15.4754 36.2503 13.5751L39.625 10.3205L34.2189 4.97985L31.1063 8.38736C29.2169 7.15323 27.251 6.27951 25.0667 5.79896V1.0918H17.4216V5.79896C14.1452 6.27951 12.7254 7.18599 10.8251 8.43105L6.50014 4.36825L2.15338 20.7505L18.5356 18.5662L15.2592 15.2897C15.2592 15.2897 17.4435 13.1054 20.7199 13.1054C26.7486 13.1054 31.6414 17.9983 31.6414 24.0269C31.6414 30.0556 26.7486 34.9484 20.7199 34.9484C15.0517 34.9484 10.3991 30.6345 9.85304 25.1191" stroke="#FF730E" stroke-width="2" stroke-miterlimit="10" stroke-linecap="round"/>
</g>
<defs>
<clipPath id="clip0_34_1768">
<rect width="44.4942" height="48" fill="white" transform="translate(0.25293)"/>
</clipPath>
</defs>
</svg>
