<svg width="43" height="49" viewBox="0 0 43 49" fill="none" xmlns="http://www.w3.org/2000/svg">
<g clip-path="url(#clip0_34_1755)">
<path d="M16.8037 23.4569C16.8037 24.6047 17.7428 25.5438 18.8907 25.5438H21.2489C22.2507 25.5438 23.0646 24.7299 23.0646 23.7282C23.0646 22.9455 22.5637 22.2464 21.8228 21.996L18.0455 20.7334C17.3046 20.4829 16.8037 19.7942 16.8037 19.0116C16.8037 17.9995 17.6176 17.1855 18.6194 17.1855H20.9776C22.1255 17.1855 23.0646 18.1247 23.0646 19.2725" stroke="#FF730E" stroke-width="2" stroke-linecap="round" stroke-linejoin="round"/>
<path d="M26.1953 23.4569C26.1953 24.6047 27.1344 25.5438 28.2823 25.5438H30.6405C31.6423 25.5438 32.4562 24.7299 32.4562 23.7282C32.4562 22.9455 31.9553 22.2464 31.2144 21.996L27.4371 20.7334C26.6962 20.4829 26.1953 19.7942 26.1953 19.0116C26.1953 17.9995 27.0092 17.1855 28.011 17.1855H30.3692C31.5171 17.1855 32.4562 18.1247 32.4562 19.2725" stroke="#FF730E" stroke-width="2" stroke-linecap="round" stroke-linejoin="round"/>
<path d="M35.5869 17.1953H39.7608C40.9087 17.1953 41.8478 18.1344 41.8478 19.2823V23.4562C41.8478 24.604 40.9087 25.5431 39.7608 25.5431H35.5869V17.1953Z" stroke="#FF730E" stroke-width="2" stroke-linecap="round" stroke-linejoin="round"/>
<path d="M1.15234 39.1082V3.62993C1.15234 2.4821 2.09147 1.54297 3.2393 1.54297H30.3697C31.5176 1.54297 32.4567 2.4821 32.4567 3.62993V14.0647" stroke="#FF730E" stroke-width="2" stroke-linecap="round" stroke-linejoin="round"/>
<path d="M32.4561 28.6738V39.1086" stroke="#FF730E" stroke-width="2" stroke-linecap="round" stroke-linejoin="round"/>
<path d="M32.4567 39.1094V45.3702C32.4567 46.5181 31.5176 47.4572 30.3697 47.4572H3.2393C2.09147 47.4572 1.15234 46.5181 1.15234 45.3702V39.1094" stroke="#FF730E" stroke-width="2" stroke-linecap="round" stroke-linejoin="round"/>
<path d="M5.28223 43.2832H8.45614" stroke="#FF730E" stroke-width="2" stroke-linecap="round" stroke-linejoin="round"/>
<path d="M32.4567 41.1963C32.4567 40.0485 31.5176 39.1094 30.3697 39.1094H3.2393C2.09147 39.1094 1.15234 40.0485 1.15234 41.1963" stroke="#FF730E" stroke-width="2" stroke-linecap="round" stroke-linejoin="round"/>
</g>
<defs>
<clipPath id="clip0_34_1755">
<rect width="42.7826" height="48" fill="white" transform="translate(0.108398 0.5)"/>
</clipPath>
</defs>
</svg>
