<svg width="16" height="16" viewBox="0 0 16 16" fill="none" xmlns="http://www.w3.org/2000/svg">
<path fill-rule="evenodd" clip-rule="evenodd" d="M8.03307 0C10.154 0.000868955 12.1446 0.826537 13.6416 2.32516C15.1384 3.82372 15.9624 5.81569 15.9616 7.9342C15.9598 12.3057 12.4027 15.8625 8.03313 15.8625H8.02992C6.70296 15.8621 5.39911 15.5291 4.24109 14.8975L0.0380859 16L1.1629 11.8916C0.469055 10.6892 0.103965 9.32527 0.104577 7.92786C0.106283 3.55647 3.66304 0 8.03307 0ZM8.03043 14.5235H8.0331C11.6653 14.5235 14.6214 11.5673 14.6229 7.93365C14.6236 6.17286 13.9388 4.51718 12.6947 3.27158C11.4505 2.02598 9.79589 1.33961 8.03577 1.33906C4.40091 1.33906 1.44466 4.29499 1.44325 7.92831C1.44273 9.17346 1.79112 10.3861 2.45075 11.4353L2.60745 11.6847L1.94171 14.1164L4.43583 13.4622L4.67643 13.605C5.68821 14.2054 6.84801 14.5231 8.03043 14.5235ZM10.2943 8.94657C10.4758 9.01274 11.4498 9.49192 11.6479 9.59107C11.6866 9.61044 11.7228 9.62791 11.7563 9.64411C11.8944 9.71089 11.9878 9.75599 12.0276 9.82247C12.0772 9.90506 12.0772 10.3018 11.9121 10.7646C11.747 11.2273 10.9555 11.6496 10.5749 11.7065C10.2336 11.7575 9.80168 11.7788 9.32711 11.628C9.03942 11.5367 8.6704 11.4148 8.19776 11.2107C6.34048 10.4087 5.08533 8.60852 4.84825 8.26848C4.83165 8.24468 4.82005 8.22803 4.81357 8.21938L4.81201 8.2173C4.70729 8.0776 4.00464 7.14022 4.00464 6.17006C4.00464 5.25762 4.45288 4.7793 4.65922 4.55911C4.67337 4.54402 4.68638 4.53014 4.69803 4.51741C4.87958 4.31913 5.09424 4.26953 5.22629 4.26953C5.35834 4.26953 5.49058 4.27072 5.60596 4.27648C5.62022 4.2772 5.63505 4.27712 5.65038 4.27703C5.76584 4.27639 5.90974 4.27558 6.05173 4.61653C6.10609 4.74717 6.1855 4.94053 6.26935 5.14467C6.44013 5.56046 6.62929 6.02101 6.66251 6.08751C6.71207 6.18664 6.74506 6.30234 6.67902 6.43458C6.6691 6.45443 6.65992 6.47317 6.65115 6.49107C6.60156 6.5923 6.56508 6.66678 6.48093 6.76504C6.44793 6.80358 6.41383 6.8451 6.37973 6.88662C6.31146 6.96975 6.24318 7.05289 6.18375 7.11211C6.08456 7.21091 5.98131 7.31811 6.09685 7.5164C6.21246 7.71478 6.61002 8.36347 7.19898 8.8888C7.83198 9.45342 8.38217 9.69207 8.66107 9.81305C8.71555 9.83669 8.75968 9.85583 8.79206 9.87204C8.99011 9.97129 9.10572 9.95465 9.22126 9.82251C9.33683 9.69026 9.7165 9.24401 9.84854 9.04572C9.98059 8.84741 10.1127 8.88046 10.2943 8.94657Z" fill="#25D366"/>
</svg>
