<svg width="17" height="16" viewBox="0 0 17 16" fill="none" xmlns="http://www.w3.org/2000/svg">
<path fill-rule="evenodd" clip-rule="evenodd" d="M11.1058 2.58235C11.4787 2.20948 11.9844 2 12.5118 2C12.7729 2 13.0314 2.05143 13.2726 2.15135C13.5139 2.25127 13.733 2.39772 13.9177 2.58235C14.1023 2.76697 14.2487 2.98616 14.3487 3.22739C14.4486 3.46861 14.5 3.72716 14.5 3.98826C14.5 4.24936 14.4486 4.50791 14.3487 4.74913C14.2487 4.99036 14.1023 5.20955 13.9177 5.39417L13.1821 6.12978C12.9217 6.39013 12.4996 6.39013 12.2393 6.12978L10.3702 4.26076C10.1099 4.00041 10.1099 3.5783 10.3702 3.31795L11.1058 2.58235ZM9.42743 5.20357C9.16708 4.94322 8.74497 4.94322 8.48462 5.20357L3.84057 9.84762C3.41337 10.2748 3.11031 10.8101 2.96378 11.3962L2.51992 13.1716C2.46312 13.3988 2.52969 13.6392 2.69528 13.8047C2.86086 13.9703 3.10119 14.0369 3.32837 13.9801L5.10382 13.5362C5.68993 13.3897 6.2252 13.0866 6.65239 12.6594L11.2964 8.0154C11.5568 7.75505 11.5568 7.33294 11.2964 7.07259L9.42743 5.20357Z" fill="white"/>
<path fill-rule="evenodd" clip-rule="evenodd" d="M8.5 13.3334C8.5 12.9652 8.79848 12.6667 9.16667 12.6667L13.8333 12.6667C14.2015 12.6667 14.5 12.9652 14.5 13.3334C14.5 13.7016 14.2015 14.0001 13.8333 14.0001L9.16667 14.0001C8.79848 14.0001 8.5 13.7016 8.5 13.3334Z" fill="white"/>
</svg>
